<svg width="24" height="24" viewBox="0 0 24 24" fill="none" xmlns="http://www.w3.org/2000/svg">
<path d="M12.75 3.94006C13.75 3.22006 14.91 2.86006 16.22 2.86006C16.94 2.86006 17.73 3.05006 18.59 3.45006C19.45 3.84006 20.13 4.30006 20.63 4.83006C21.66 6.11006 22.09 7.60006 21.94 9.30006C21.78 11.0001 21.22 12.3301 20.25 13.2701L12.66 20.8601C12.47 21.0501 12.23 21.1401 11.95 21.1401C11.67 21.1401 11.44 21.0501 11.25 20.8601C11.1576 20.769 11.0851 20.6597 11.0369 20.5393C10.9887 20.4188 10.9659 20.2897 10.97 20.1601C10.97 19.8801 11.06 19.6401 11.25 19.4501L15.84 14.8601C16.09 14.6401 16.09 14.4101 15.84 14.1601C15.59 13.9101 15.36 13.9101 15.14 14.1601L10.55 18.7501C10.4574 18.8433 10.3465 18.9163 10.2243 18.9645C10.1021 19.0127 9.97126 19.035 9.83999 19.0301C9.55999 19.0301 9.32999 18.9401 9.13999 18.7501C9.04763 18.659 8.97508 18.5497 8.9269 18.4293C8.87872 18.3088 8.85594 18.1797 8.85999 18.0501C8.85999 17.7701 8.94999 17.5301 9.13999 17.3401L13.73 12.7501C14 12.5001 14 12.2501 13.73 12.0001C13.5 11.7501 13.28 11.7501 13.03 12.0001L8.43999 16.6401C8.34639 16.7318 8.23532 16.8039 8.11336 16.852C7.99141 16.9001 7.86104 16.9232 7.72999 16.9201C7.44999 16.9201 7.20999 16.8301 6.99999 16.6401C6.79999 16.4501 6.69999 16.2201 6.69999 15.9401C6.69999 15.6601 6.80999 15.4101 7.02999 15.1901L11.63 10.5901C11.88 10.3401 11.88 10.1101 11.63 9.89006C11.38 9.67006 11.14 9.67006 10.92 9.89006L6.27999 14.5001C6.05999 14.7001 5.82999 14.8101 5.57999 14.8101C5.29999 14.8101 5.05999 14.7101 4.87999 14.5001C4.68999 14.3001 4.58999 14.0601 4.58999 13.7801C4.58999 13.5001 4.68999 13.2701 4.87999 13.0801C7.93999 10.0001 9.82999 8.14006 10.55 7.45006L14.11 10.9701C14.5 11.3401 14.95 11.5301 15.5 11.5301C16.2 11.5301 16.75 11.2501 17.16 10.6901C17.44 10.2801 17.54 9.83006 17.46 9.33006C17.38 8.83006 17.17 8.41006 16.83 8.06006L12.75 3.94006ZM14.81 10.2701L10.55 6.00006L3.46999 13.0801C2.62999 12.2301 2.14999 10.9301 2.03999 9.16006C1.92999 7.40006 2.40999 5.87006 3.46999 4.59006C4.65999 3.41006 6.07999 2.81006 7.72999 2.81006C9.38999 2.81006 10.8 3.41006 11.95 4.59006L16.22 8.86006C16.41 9.05006 16.5 9.28006 16.5 9.56006C16.5 9.84006 16.41 10.0801 16.22 10.2701C16.03 10.4501 15.8 10.5501 15.5 10.5501C15.23 10.5501 15 10.4501 14.81 10.2701Z" fill="#2E3838"/>
</svg>
