<!--?xml version="1.0" encoding="utf-8"?-->
<!-- Svg Vector Icons : http://www.onlinewebfonts.com/icon -->

<svg version="1.1" xmlns="http://www.w3.org/2000/svg" xmlns:xlink="http://www.w3.org/1999/xlink" x="0px" y="0px" viewBox="0 0 256 256" enable-background="new 0 0 256 256" xml:space="preserve">
<metadata> Svg Vector Icons : http://www.onlinewebfonts.com/icon </metadata>
<g><g><g><path fill="#449daa" data-title="Layer 0" xs="0" d="M20.4,50.3c-3.4,1.3-7.4,5.1-9.1,8.4L10,61.5V128v66.5l1.3,2.7c1.7,3.5,5.7,7.2,9.2,8.4l2.6,1l105.5-0.1l105.5-0.1l2.2-1c3.1-1.4,6.6-4.9,8.3-8.1l1.4-2.8V128V61.5l-1.4-2.8c-1.8-3.6-5.6-7.1-9.1-8.4l-2.7-1l-105,0C23.8,49.4,22.9,49.4,20.4,50.3z M77.5,67.9v11.4H81h3.6V67.9V56.5l74.1,0.1l74.1,0.1l2,1.4c1.1,0.8,2.5,2.3,3,3.3c1,1.9,1,2,1.1,66l0.1,64.1l-1.1,2.5c-0.8,1.8-1.8,2.9-3.2,3.9l-2,1.3l-74,0.1l-74,0.1v-11.4v-11.4H81h-3.6v11.4v11.4l-27.1-0.1l-27.1-0.1l-2-1.4c-1.1-0.8-2.5-2.3-3-3.3c-1-1.9-1-2-1.1-65.6c-0.1-46.7,0-64.2,0.4-65.6c0.7-2.7,2.4-4.7,4.8-5.9c2-1,2.5-1,28.7-1h26.6V67.9L77.5,67.9z"/><path fill="#c0a695" data-title="Layer 1" xs="1" d="M128.2,84.3c-13.7,3.1-21.3,17.1-16.6,30.4c1.2,3.3,2.8,5.7,5.9,8.7c11.4,10.9,29.8,7.3,36.6-7.1c1.5-3.2,1.8-4.1,2-8.3c0.3-5.8-0.9-10-3.9-14.4C147.1,86,137.2,82.3,128.2,84.3z M139.5,92.1c3.1,1.4,6.3,4.5,7.9,7.7c1.1,2.3,1.3,3.2,1.3,7c0,3.8-0.2,4.6-1.3,6.8c-2.9,5.5-7.2,8.3-13.4,8.6c-5.2,0.2-8.4-1-11.9-4.4c-3.5-3.5-4.7-6.8-4.4-11.9c0.2-4.4,1.3-7,4.4-10.2c3.3-3.5,7-5,12-4.7C136,91,138.2,91.5,139.5,92.1z"/><path fill="#c0c059" data-title="Layer 2" xs="2" d="M158.8,125.9l-30.5,40.8l1.1,0.9c0.6,0.5,2,1.5,3,2.2c1.8,1.2,1.8,1.2,2.4,0.3c0.4-0.5,14.1-18.9,30.5-40.9l29.8-40l-2.8-2c-1.5-1.1-2.8-2.1-3-2.1C189.4,85.1,175.5,103.4,158.8,125.9z"/><path fill="#7f9b77" data-title="Layer 3" xs="3" d="M77.5,107.3v13.1H81h3.6v-13.1V94.1H81h-3.6V107.3z"/><path fill="#76a4c1" data-title="Layer 4" xs="4" d="M184.3,127.3c-13.2,3.5-20.4,17.7-15.4,30.4c4.1,10.6,15.7,16.7,26.8,14.1c7.6-1.8,14.3-8.1,16.7-15.6c3.9-12.3-3.4-25.6-15.9-28.9C193.4,126.4,187.6,126.4,184.3,127.3z M195.2,134.3c2.6,0.8,6.5,3.6,8.1,6c2.2,3.3,3.1,6.4,2.8,10.2c-0.4,6-3.7,10.6-9.4,13.2c-3.6,1.7-9.2,1.8-12.5,0.2c-3.3-1.5-6.7-4.9-8.2-8.3c-1.2-2.6-1.3-3.3-1.1-7.1c0.1-3.4,0.4-4.5,1.6-6.6C180.1,135.1,187.5,132.1,195.2,134.3z"/><path fill="#5da4b3" data-title="Layer 5" xs="5" d="M77.5,148.7v13.1H81h3.6v-13.1v-13.1H81h-3.6V148.7z"/></g></g></g>
</svg>