<svg xmlns="http://www.w3.org/2000/svg" xmlns:xlink="http://www.w3.org/1999/xlink" version="1.1" width="256" height="256" viewBox="0 0 256 256" xml:space="preserve">

<defs>
</defs>
<g style="stroke: none; stroke-width: 0; stroke-dasharray: none; stroke-linecap: butt; stroke-linejoin: miter; stroke-miterlimit: 10; fill: none; fill-rule: nonzero; opacity: 1;" transform="translate(1.4065934065934016 1.4065934065934016) scale(2.81 2.81)" >
	<path d="M 86.863 12.523 H 21.998 c -0.909 0 -1.775 0.383 -2.386 1.056 L 8.215 26.117 c -1.118 1.23 -1.118 3.108 0 4.337 l 11.397 12.539 c 0.611 0.672 1.477 1.056 2.386 1.056 l 64.865 0 c 1.732 0 3.137 -1.404 3.137 -3.137 l 0 -25.254 C 90 13.927 88.596 12.523 86.863 12.523 z" style="stroke: none; stroke-width: 1; stroke-dasharray: none; stroke-linecap: butt; stroke-linejoin: miter; stroke-miterlimit: 10; fill: rgb(52,122,197); fill-rule: nonzero; opacity: 1;" transform=" matrix(1 0 0 1 0 0) " stroke-linecap="round" />
	<path d="M 85.607 49.107 L 27.956 19.378 c -0.808 -0.416 -1.753 -0.473 -2.605 -0.155 L 9.475 25.144 c -1.557 0.581 -2.418 2.25 -1.988 3.855 l 4.383 16.368 c 0.235 0.878 0.829 1.615 1.637 2.032 l 57.651 29.729 c 1.54 0.794 3.432 0.189 4.226 -1.35 l 11.574 -22.445 C 87.751 51.793 87.147 49.901 85.607 49.107 z M 17.901 31.929 c -0.637 1.235 -2.155 1.72 -3.39 1.083 c -1.235 -0.637 -1.721 -2.155 -1.083 -3.391 c 0.637 -1.235 2.155 -1.72 3.39 -1.083 C 18.053 29.175 18.538 30.693 17.901 31.929 z" style="stroke: none; stroke-width: 1; stroke-dasharray: none; stroke-linecap: butt; stroke-linejoin: miter; stroke-miterlimit: 10; fill: rgb(89,165,247); fill-rule: nonzero; opacity: 1;" transform=" matrix(1 0 0 1 0 0) " stroke-linecap="round" />
	<path d="M 69.603 26.765 c -2.351 0 -4.264 -1.913 -4.264 -4.264 s 1.913 -4.264 4.264 -4.264 s 4.264 1.913 4.264 4.264 S 71.953 26.765 69.603 26.765 z M 69.603 20.237 c -1.248 0 -2.264 1.016 -2.264 2.264 s 1.016 2.264 2.264 2.264 s 2.264 -1.016 2.264 -2.264 S 70.851 20.237 69.603 20.237 z" style="stroke: none; stroke-width: 1; stroke-dasharray: none; stroke-linecap: butt; stroke-linejoin: miter; stroke-miterlimit: 10; fill: rgb(255,255,255); fill-rule: nonzero; opacity: 1;" transform=" matrix(1 0 0 1 0 0) " stroke-linecap="round" />
	<path d="M 79.742 36.904 c -2.351 0 -4.264 -1.913 -4.264 -4.264 s 1.913 -4.264 4.264 -4.264 s 4.264 1.913 4.264 4.264 S 82.093 36.904 79.742 36.904 z M 79.742 30.377 c -1.248 0 -2.264 1.016 -2.264 2.264 s 1.016 2.264 2.264 2.264 s 2.264 -1.016 2.264 -2.264 S 80.99 30.377 79.742 30.377 z" style="stroke: none; stroke-width: 1; stroke-dasharray: none; stroke-linecap: butt; stroke-linejoin: miter; stroke-miterlimit: 10; fill: rgb(255,255,255); fill-rule: nonzero; opacity: 1;" transform=" matrix(1 0 0 1 0 0) " stroke-linecap="round" />
	<path d="M 68.132 35.111 c -0.256 0 -0.512 -0.098 -0.707 -0.293 c -0.391 -0.391 -0.391 -1.023 0 -1.414 l 13.222 -13.222 c 0.391 -0.391 1.023 -0.391 1.414 0 s 0.391 1.023 0 1.414 L 68.839 34.818 C 68.644 35.014 68.388 35.111 68.132 35.111 z" style="stroke: none; stroke-width: 1; stroke-dasharray: none; stroke-linecap: butt; stroke-linejoin: miter; stroke-miterlimit: 10; fill: rgb(255,255,255); fill-rule: nonzero; opacity: 1;" transform=" matrix(1 0 0 1 0 0) " stroke-linecap="round" />
	<path d="M 57.588 62.173 c -0.154 0 -0.311 -0.035 -0.457 -0.111 l -6.296 -3.247 c -0.491 -0.253 -0.684 -0.856 -0.431 -1.347 l 7.323 -14.203 c 0.253 -0.491 0.857 -0.684 1.347 -0.43 c 0.491 0.253 0.684 0.856 0.431 1.347 L 52.64 57.495 l 5.407 2.789 c 0.491 0.253 0.684 0.856 0.431 1.347 C 58.3 61.976 57.95 62.173 57.588 62.173 z" style="stroke: none; stroke-width: 1; stroke-dasharray: none; stroke-linecap: butt; stroke-linejoin: miter; stroke-miterlimit: 10; fill: rgb(255,255,255); fill-rule: nonzero; opacity: 1;" transform=" matrix(1 0 0 1 0 0) " stroke-linecap="round" />
	<path d="M 68.706 67.906 c -0.154 0 -0.311 -0.035 -0.457 -0.111 l -6.296 -3.247 c -0.491 -0.253 -0.684 -0.856 -0.431 -1.347 l 7.323 -14.202 c 0.121 -0.236 0.332 -0.414 0.584 -0.494 c 0.253 -0.082 0.528 -0.059 0.763 0.063 l 6.296 3.247 c 0.491 0.253 0.684 0.856 0.431 1.347 c -0.254 0.491 -0.856 0.685 -1.347 0.431 l -5.407 -2.788 l -6.407 12.424 l 5.407 2.789 c 0.491 0.253 0.684 0.856 0.431 1.347 C 69.418 67.709 69.068 67.906 68.706 67.906 z" style="stroke: none; stroke-width: 1; stroke-dasharray: none; stroke-linecap: butt; stroke-linejoin: miter; stroke-miterlimit: 10; fill: rgb(255,255,255); fill-rule: nonzero; opacity: 1;" transform=" matrix(1 0 0 1 0 0) " stroke-linecap="round" />
	<path d="M 70.189 59.682 c -0.154 0 -0.311 -0.035 -0.457 -0.111 l -4.118 -2.124 c -0.491 -0.253 -0.684 -0.856 -0.431 -1.347 c 0.254 -0.491 0.855 -0.687 1.347 -0.431 l 4.118 2.124 c 0.491 0.253 0.684 0.856 0.431 1.347 C 70.901 59.484 70.552 59.682 70.189 59.682 z" style="stroke: none; stroke-width: 1; stroke-dasharray: none; stroke-linecap: butt; stroke-linejoin: miter; stroke-miterlimit: 10; fill: rgb(255,255,255); fill-rule: nonzero; opacity: 1;" transform=" matrix(1 0 0 1 0 0) " stroke-linecap="round" />
	<path d="M 45.723 56.054 c -0.154 0 -0.311 -0.035 -0.458 -0.111 c -0.491 -0.253 -0.684 -0.856 -0.43 -1.347 l 5.745 -11.141 c 0.617 -1.198 0.146 -2.676 -1.054 -3.294 l -2.69 -1.388 c -0.577 -0.297 -1.239 -0.353 -1.864 -0.151 c -0.625 0.2 -1.132 0.627 -1.43 1.204 l -5.745 11.14 c -0.253 0.491 -0.855 0.686 -1.347 0.431 c -0.491 -0.253 -0.684 -0.856 -0.43 -1.347 l 5.745 -11.14 c 0.542 -1.052 1.465 -1.831 2.599 -2.193 c 1.135 -0.362 2.338 -0.263 3.389 0.279 l 2.691 1.388 c 2.179 1.124 3.037 3.81 1.914 5.988 l -5.745 11.14 C 46.435 55.856 46.085 56.054 45.723 56.054 z" style="stroke: none; stroke-width: 1; stroke-dasharray: none; stroke-linecap: butt; stroke-linejoin: miter; stroke-miterlimit: 10; fill: rgb(255,255,255); fill-rule: nonzero; opacity: 1;" transform=" matrix(1 0 0 1 0 0) " stroke-linecap="round" />
	<path d="M 49.385 48.953 c -0.154 0 -0.311 -0.035 -0.457 -0.111 l -8.816 -4.546 c -0.491 -0.253 -0.684 -0.856 -0.43 -1.347 c 0.253 -0.491 0.854 -0.684 1.347 -0.43 l 8.815 4.546 c 0.491 0.253 0.684 0.856 0.431 1.347 C 50.097 48.756 49.747 48.953 49.385 48.953 z" style="stroke: none; stroke-width: 1; stroke-dasharray: none; stroke-linecap: butt; stroke-linejoin: miter; stroke-miterlimit: 10; fill: rgb(255,255,255); fill-rule: nonzero; opacity: 1;" transform=" matrix(1 0 0 1 0 0) " stroke-linecap="round" />
	<path d="M 30.211 48.128 c -0.603 0 -1.2 -0.144 -1.75 -0.427 l -4.744 -2.446 c -0.491 -0.253 -0.684 -0.856 -0.43 -1.347 c 0.253 -0.491 0.854 -0.684 1.347 -0.43 l 4.744 2.446 c 0.435 0.224 0.933 0.265 1.403 0.114 c 0.47 -0.151 0.853 -0.473 1.076 -0.907 l 1.145 -2.219 c 0.224 -0.434 0.265 -0.932 0.114 -1.403 c -0.15 -0.47 -0.472 -0.853 -0.906 -1.077 l -2.642 -1.362 c -1.882 -0.97 -2.624 -3.291 -1.653 -5.173 l 1.144 -2.219 c 0.971 -1.882 3.293 -2.624 5.174 -1.653 l 3.405 1.756 c 0.491 0.253 0.684 0.856 0.43 1.347 c -0.253 0.491 -0.856 0.684 -1.347 0.43 l -3.405 -1.756 c -0.902 -0.465 -2.014 -0.109 -2.48 0.793 l -1.144 2.219 c -0.224 0.434 -0.264 0.932 -0.114 1.403 c 0.15 0.47 0.472 0.853 0.906 1.077 l 2.642 1.362 c 0.909 0.468 1.582 1.266 1.895 2.245 c 0.313 0.979 0.227 2.02 -0.242 2.929 l -1.144 2.219 c -0.468 0.909 -1.266 1.582 -2.245 1.895 C 31.002 48.066 30.606 48.128 30.211 48.128 z" style="stroke: none; stroke-width: 1; stroke-dasharray: none; stroke-linecap: butt; stroke-linejoin: miter; stroke-miterlimit: 10; fill: rgb(255,255,255); fill-rule: nonzero; opacity: 1;" transform=" matrix(1 0 0 1 0 0) " stroke-linecap="round" />
	<path d="M 13.426 30.622 c -0.158 0 -0.319 -0.038 -0.469 -0.117 L 0.53 23.894 c -0.487 -0.259 -0.672 -0.865 -0.413 -1.353 c 0.259 -0.488 0.863 -0.673 1.353 -0.413 l 12.427 6.61 c 0.487 0.259 0.672 0.865 0.413 1.353 C 14.13 30.429 13.784 30.622 13.426 30.622 z" style="stroke: none; stroke-width: 1; stroke-dasharray: none; stroke-linecap: butt; stroke-linejoin: miter; stroke-miterlimit: 10; fill: rgb(52,122,197); fill-rule: nonzero; opacity: 1;" transform=" matrix(1 0 0 1 0 0) " stroke-linecap="round" />
</g>
</svg>