<!--?xml version="1.0" encoding="utf-8"?-->
<!-- Svg Vector Icons : http://www.onlinewebfonts.com/icon -->

<svg version="1.1" xmlns="http://www.w3.org/2000/svg" xmlns:xlink="http://www.w3.org/1999/xlink" x="0px" y="0px" viewBox="0 0 256 256" enable-background="new 0 0 256 256" xml:space="preserve">
<metadata> Svg Vector Icons : http://www.onlinewebfonts.com/icon </metadata>
<g><g><path fill="#ADD8E6" data-title="Layer 0" xs="0" d="M110.4,250.6H40.8c-9.2,0-16.6-7.3-16.6-16.3v-86.5c0-3.2,2.6-5.8,5.8-5.8h80.4c3.2,0,5.8,2.6,5.8,5.8v97C116.2,248,113.6,250.6,110.4,250.6z M35.8,153.6v80.7c0,2.6,2.3,4.7,5,4.7h63.8v-85.5H35.8z"/><path fill="#ADD8E6" data-title="Layer 1" xs="1" d="M215.2,250.6h-69.6c-3.2,0-5.8-2.6-5.8-5.8v-97c0-3.2,2.6-5.8,5.8-5.8H226c3.2,0,5.8,2.6,5.8,5.8v86.5C231.8,243.3,224.4,250.6,215.2,250.6z M151.4,239h63.9c2.8,0,5-2.1,5-4.7v-80.7h-68.9V239z"/><path fill="#ADD8E6" data-title="Layer 2" xs="2" d="M110.4,129H26.6c-9.2,0-16.6-7.5-16.6-16.6V81.5c0-9.2,7.5-16.6,16.6-16.6h83.8c3.2,0,5.8,2.6,5.8,5.8v52.5C116.2,126.4,113.6,129,110.4,129z M26.6,76.5c-2.8,0-5,2.3-5,5v30.9c0,2.8,2.3,5,5,5h78V76.5H26.6z"/><path fill="#ADD8E6" data-title="Layer 3" xs="3" d="M229.4,129h-83.8c-3.2,0-5.8-2.6-5.8-5.8V70.7c0-3.2,2.6-5.8,5.8-5.8h83.8c9.2,0,16.6,7.5,16.6,16.6v30.9C246,121.5,238.6,129,229.4,129z M151.4,117.4h78c2.8,0,5-2.3,5-5V81.5c0-2.8-2.3-5-5-5h-78V117.4z"/><path fill="#ADD8E6" data-title="Layer 4" xs="4" d="M84.2,53.5c-5.6,0-10.4-0.7-14.5-2c-21.6-7.2-25.3-21.5-22-31.6C52,7.1,66.6,1.9,84.3,7.8c17.7,5.9,34.8,30.5,35.5,31.5c1.1,1.5,1.3,3.4,0.7,5.2c-0.6,1.7-2,3.1-3.7,3.6C116,48.4,99.6,53.5,84.2,53.5z M70.1,16.9c-4.2,0-9.5,1.2-11.3,6.7c-2.3,6.8,3.2,13.2,14.6,17c7.8,2.6,22.8,0.8,31.8-1.3c-6.2-7.6-15.9-17.6-24.5-20.4C76.7,17.5,73.2,16.9,70.1,16.9z"/><path fill="#ADD8E6" data-title="Layer 5" xs="5" d="M169.4,53.5L169.4,53.5c-15.5,0-31.9-5.2-32.6-5.4c-1.8-0.5-3.1-1.9-3.7-3.6c-0.6-1.7-0.3-3.7,0.7-5.2c0.7-1.1,17.8-25.6,35.5-31.5c17.7-5.9,32.3-0.8,36.5,12.1c2.1,6.4,1.2,13-2.8,18.6c-3.9,5.7-10.4,10-19.2,12.9C179.8,52.9,175,53.5,169.4,53.5z M148.5,39.3c5.7,1.3,13.6,2.7,21,2.7l0,0c4.3,0,8-0.5,10.8-1.4c6.3-2.1,11-5.1,13.4-8.6c1.8-2.7,2.3-5.5,1.3-8.4c-1.9-5.6-7.2-6.7-11.3-6.7c-3.1,0-6.7,0.7-10.6,2C164.4,21.7,154.7,31.7,148.5,39.3z"/></g></g>
</svg>